<?xml version="1.0" encoding="UTF-8" standalone="no"?>
<svg version="1.1" xmlns="http://www.w3.org/2000/svg" width="298" height="339" style="fill:none">
  <path d="M 139.8135,2.5649239 84.126501,34.792924 a 4.08,4.08 0 0 0 -1.493,1.496 l 59.828999,34.624 a 13.402,13.402 0 0 1 5.811,6.832 c 0.378,-0.015 0.757,-0.018 1.135,-0.01 a 11.166,11.166 0 0 1 5.013,-6.175 l 60.562,-35.049 a 6.984,6.984 0 0 0 -2.55,-2.556 L 158.1925,2.5649239 a 18.341,18.341 0 0 0 -18.379,0 z m -8.873,78.8520001 a 6.754,6.754 0 0 1 2.476,2.483 l -33.164,19.193996 c -0.430999,0.202 -0.856999,0.423 -1.274999,0.662 l -17.902,10.194 a 7.533,7.533 0 0 0 -1.47,1.092 l -3.163,1.831 a 18.435,18.435 0 0 0 -9.19,15.955 v 65.732 a 6.361,6.361 0 0 1 -3.026,-0.852 l -51.7,-29.92 -2.8460003,-1.648 a 18.43,18.43 0 0 1 -9.18999998,-15.954 V 94.008921 A 18.43,18.43 0 0 1 9.6805007,78.053924 l 48.5350003,-28.089 a 18.34,18.34 0 0 1 18.379,0 z m -47.031999,48.419996 18.515999,-10.715 a 14.236,14.236 0 0 1 12.84,0.723 l 18.896,10.936 -16.857,9.756 a 18.43,18.43 0 0 0 -9.189,15.954 v 20.088 l -19.550999,-11.314 a 12.984,12.984 0 0 1 -6.378,-9.662 v -22.775 c 0,-1.234 0.657,-2.374 1.723,-2.991 z m -1.723,76.339 v -27.43 l 25.928999,15.005 v 29.425 l -24.205999,-14.008 a 3.456,3.456 0 0 1 -1.723,-2.992 z m 35.117999,39.619 c -0.207,-0.12 -0.411,-0.243 -0.612,-0.37 l -33.563999,-19.424 a 7.19,7.19 0 0 0 -1.038,3.724 v 62.667 a 18.428,18.428 0 0 0 9.189,15.954 l 48.534999,28.089 a 18.34,18.34 0 0 0 18.379,0 l 48.535,-28.089 a 18.431,18.431 0 0 0 9.19,-15.954 v -62.667 c 0,-1.336 -0.371,-2.62 -1.04,-3.724 l -33.739,19.526 c -0.148,0.09 -0.298,0.18 -0.449,0.268 l -16.224,9.389 a 6.879,6.879 0 0 1 -0.291,0.16 l -5.982,3.462 a 18.34,18.34 0 0 1 -18.379,0 l -5.886,-3.407 a 6.68,6.68 0 0 1 -0.4,-0.215 z m -48.013999,-31.189 a 18.9,18.9 0 0 0 1.014,1.736 14.028,14.028 0 0 0 -3.051,8.734 v 68.32 a 6.15,6.15 0 0 1 -2.928,-0.826 l -54.6440003,-31.624 a 18.43,18.43 0 0 1 -9.18999998,-15.955 v -62.323 c 0,-1.444 0.4,-2.832 1.12099998,-4.026 l 59.4370003,34.398 a 12.682,12.682 0 0 0 8.241,1.566 z m 161.462999,10.47 c 0,-3.225 -1.106,-6.291 -3.051,-8.734 0.364,-0.552 0.699,-1.122 1.002,-1.711 a 12.496,12.496 0 0 0 8.157,-1.538 l 59.534,-34.453 a 7.751,7.751 0 0 1 1.115,4.009 v 62.342 a 18.429,18.429 0 0 1 -9.189,15.955 l -54.384,31.474 a 6.661,6.661 0 0 1 -3.184,0.895 z m 2.976,-27.342 a 6.25,6.25 0 0 1 -2.976,0.84 v -65.746 a 18.432,18.432 0 0 0 -9.189,-15.955 l -57.135,-33.065996 a 5.577,5.577 0 0 1 2.045,-2.05 l 54.933,-31.792 a 18.34,18.34 0 0 1 18.379,0 l 48.535,28.089 a 18.429,18.429 0 0 1 9.189,15.954997 v 56.176999 a 18.428,18.428 0 0 1 -9.189,15.954 z m -19.632,11.434 -24.218,14.015 v -29.422 l 25.941,-15.014 v 27.429 a 3.456,3.456 0 0 1 -1.723,2.992 z m 1.723,-76.34 v 21.056 a 16.333,16.333 0 0 1 -8.049,12.349 l -17.892,10.355 v -20.097 a 18.43,18.43 0 0 0 -9.189,-15.954 l -16.857,-9.756 18.409,-10.654 a 15.214,15.214 0 0 1 13.823,-0.727 l 18.032,10.437 a 3.455,3.455 0 0 1 1.723,2.991 z m -66.822,-10.633 25.947,-15.017 -24.219,-14.014999 a 3.434,3.434 0 0 0 -3.446,0 l -24.224,14.017999 z m 1.728,123.648 19.216,-11.121 a 12.99,12.99 0 0 0 5.102,-10.324 v -22.052 l -16.85,9.751 a 18.34,18.34 0 0 1 -18.379,0 l -16.865,-9.761 v 22.062 a 12.99,12.99 0 0 0 5.062,10.294 l 19.268,11.151 a 3.444,3.444 0 0 0 3.446,0 z m -18.587,-96.721 16.859,-9.756 16.857,9.756 a 18.432,18.432 0 0 1 9.189,15.955 v 20.097 l -16.85,9.752 a 18.34,18.34 0 0 1 -18.379,0 l -16.865,-9.761 v -20.088 a 18.432,18.432 0 0 1 9.189,-15.955 z" style="clip-rule:evenodd;fill:#ffffff;fill-rule:evenodd" />
</svg>
