<svg xmlns="http://www.w3.org/2000/svg" width="1721" height="512" fill="none">
<path fill="#fff" d="M487.842 317.991h16.746V195.846h-16.746v122.145zm107.485 1.919c18.839 0 36.631-7.677 48.667-20.764l-10.989-11.168c-9.071 10.47-22.677 16.403-37.155 16.403-26.863 0-47.098-20.591-47.098-47.463s20.061-47.636 46.575-47.636c14.478 0 28.607 6.107 37.852 16.926l11.164-11.517c-11.687-13.087-29.654-20.765-49.016-20.765-35.76 0-63.669 27.745-63.669 62.992 0 35.248 27.909 62.992 63.669 62.992zm74.432-1.919h89.835v-14.657h-73.089v-39.785h47.447v-14.483h-47.447v-38.563h72.391v-14.657h-89.137v122.145zm115.83 0h54.075c25.294 0 41.865-13.61 41.865-34.724 0-13.436-8.722-23.906-22.502-28.792 10.989-5.06 17.618-14.483 17.618-26.697 0-19.369-15.525-31.932-39.248-31.932h-51.808v122.145zm16.746-69.797v-38.04h34.015c14.478 0 23.723 7.329 23.723 19.02 0 11.691-9.245 19.02-23.723 19.02h-34.015zm0 55.489V261.63h35.934c16.048 0 26.34 8.375 26.34 21.113s-10.292 20.94-26.34 20.94h-35.934zm106.58 14.308h16.745v-50.952h35.934l25.468 50.952h18.488l-27.21-53.22c15.525-4.886 25.47-17.101 25.47-33.154 0-21.288-16.399-35.771-40.471-35.771h-54.424v122.145zm16.745-64.912v-42.401h36.457c14.828 0 24.77 8.375 24.77 21.113 0 12.913-9.942 21.288-24.77 21.288H925.66zm104.53 64.912h89.84v-14.657h-73.09v-39.785h47.45v-14.483h-47.45v-38.563h72.39v-14.657h-89.14v122.145zm105.83 0h17.45l14.65-36.644h55.47l14.65 36.644h18.15l-50.07-122.145h-19.88l-50.42 122.145zm37.68-50.603 22.15-55.663 22.33 55.663h-44.48zm102.8 50.603h16.75v-58.106l60.53 58.106h23.02l-66.11-62.818 64.37-59.327h-21.46l-60.35 57.059v-57.059h-16.75v122.145zm116 0h89.84v-14.657h-73.09v-39.785h47.45v-14.483h-47.45v-38.563h72.39v-14.657h-89.14v122.145zm115.83 0h16.75v-50.952h35.94l25.46 50.952h18.49l-27.21-53.22c15.53-4.886 25.47-17.101 25.47-33.154 0-21.288-16.4-35.771-40.47-35.771h-54.43v122.145zm16.75-64.912v-42.401h36.45c14.83 0 24.78 8.375 24.78 21.113 0 12.913-9.95 21.288-24.78 21.288h-36.45z"/>
<path fill="#fff" fill-rule="evenodd" d="m246.442 88.565-55.687 32.228a4.08 4.08 0 0 0-1.493 1.496l59.829 34.624a13.402 13.402 0 0 1 5.811 6.832c.378-.015.757-.018 1.135-.01a11.166 11.166 0 0 1 5.013-6.175l60.562-35.049a6.984 6.984 0 0 0-2.55-2.556l-54.241-31.39a18.341 18.341 0 0 0-18.379 0zm-8.873 78.852a6.754 6.754 0 0 1 2.476 2.483l-33.164 19.194c-.431.202-.857.423-1.275.662l-17.902 10.194a7.533 7.533 0 0 0-1.47 1.092l-3.163 1.831a18.435 18.435 0 0 0-9.19 15.955v65.732a6.361 6.361 0 0 1-3.026-.852l-51.7-29.92-2.846-1.648a18.43 18.43 0 0 1-9.19-15.954v-56.177a18.43 18.43 0 0 1 9.19-15.955l48.535-28.089a18.34 18.34 0 0 1 18.379 0l54.346 31.452zm-47.032 48.42 18.516-10.715a14.236 14.236 0 0 1 12.84.723l18.896 10.936-16.857 9.756a18.43 18.43 0 0 0-9.189 15.954v20.088l-19.551-11.314a12.984 12.984 0 0 1-6.378-9.662v-22.775c0-1.234.657-2.374 1.723-2.991zm-1.723 76.339v-27.43l25.929 15.005v29.425l-24.206-14.008a3.456 3.456 0 0 1-1.723-2.992zm35.118 39.619c-.207-.12-.411-.243-.612-.37l-33.564-19.424a7.19 7.19 0 0 0-1.038 3.724v62.667a18.428 18.428 0 0 0 9.189 15.954l48.535 28.089a18.34 18.34 0 0 0 18.379 0l48.535-28.089a18.431 18.431 0 0 0 9.19-15.954v-62.667c0-1.336-.371-2.62-1.04-3.724l-33.739 19.526c-.148.09-.298.18-.449.268l-16.224 9.389a6.879 6.879 0 0 1-.291.16l-5.982 3.462a18.34 18.34 0 0 1-18.379 0l-5.886-3.407a6.68 6.68 0 0 1-.4-.215l-16.224-9.389zm-48.014-31.189a18.9 18.9 0 0 0 1.014 1.736 14.028 14.028 0 0 0-3.051 8.734v68.32a6.15 6.15 0 0 1-2.928-.826l-54.644-31.624a18.43 18.43 0 0 1-9.19-15.955v-62.323c0-1.444.4-2.832 1.121-4.026l59.437 34.398a12.682 12.682 0 0 0 8.241 1.566zm161.463 10.47c0-3.225-1.106-6.291-3.051-8.734.364-.552.699-1.122 1.002-1.711a12.496 12.496 0 0 0 8.157-1.538l59.534-34.453a7.751 7.751 0 0 1 1.115 4.009v62.342a18.429 18.429 0 0 1-9.189 15.955l-54.384 31.474a6.661 6.661 0 0 1-3.184.895v-68.239zm2.976-27.342a6.25 6.25 0 0 1-2.976.84v-65.746a18.432 18.432 0 0 0-9.189-15.955l-57.135-33.066a5.577 5.577 0 0 1 2.045-2.05l54.933-31.792a18.34 18.34 0 0 1 18.379 0l48.535 28.089a18.429 18.429 0 0 1 9.189 15.955v56.177a18.428 18.428 0 0 1-9.189 15.954l-54.592 31.594zm-19.632 11.434-24.218 14.015v-29.422l25.941-15.014v27.429a3.456 3.456 0 0 1-1.723 2.992zm1.723-76.34v21.056a16.333 16.333 0 0 1-8.049 12.349l-17.892 10.355v-20.097a18.43 18.43 0 0 0-9.189-15.954l-16.857-9.756 18.409-10.654a15.214 15.214 0 0 1 13.823-.727l18.032 10.437a3.455 3.455 0 0 1 1.723 2.991zm-66.822-10.633 25.947-15.017-24.219-14.015a3.434 3.434 0 0 0-3.446 0l-24.224 14.018 25.942 15.014zm1.728 123.648 19.216-11.121a12.99 12.99 0 0 0 5.102-10.324v-22.052l-16.85 9.751a18.34 18.34 0 0 1-18.379 0l-16.865-9.761v22.062a12.99 12.99 0 0 0 5.062 10.294l19.268 11.151a3.444 3.444 0 0 0 3.446 0zm-18.587-96.721 16.859-9.756 16.857 9.756a18.432 18.432 0 0 1 9.189 15.955v20.097l-16.85 9.752a18.34 18.34 0 0 1-18.379 0l-16.865-9.761v-20.088a18.432 18.432 0 0 1 9.189-15.955z" clip-rule="evenodd"/>
</svg>
