<?xml version="1.0" encoding="UTF-8" standalone="no"?>
<svg version="1.1" viewBox="0 0 256 256" xmlns="http://www.w3.org/2000/svg">
   <style
      type="text/css"
      id="style2">
      .st0{fill:none;}
      .st1{fill:#FFFFFF;}
      .st2{fill:#662482;}
   </style>
   <g
      id="g12"
      transform="matrix(1.2411571,0,0,1.2408974,-30.904811,-30.891881)">
      <circle
         class="st1"
         cx="137.89999"
         cy="99"
         r="12.1"
         id="circle6" />
      <path
         class="st1"
         d="m 210.8,115.9 c 0,-47.3 -27.7,-68.7 -64.4,-68.7 -16.4,0 -31,4.4 -42.4,12.5 -3.8,2.7 -9,0.1 -9,-4.5 0,-3.1 -2.5,-5.7 -5.7,-5.7 H 57.7 C 54.6,49.5 52,52 52,55.2 v 144 c 0,3.1 2.5,5.7 5.7,5.7 h 33.7 c 3.1,0 5.6,-2.5 5.6,-5.6 v -8.4 c 0,-62.8 -33.2,-109.8 -0.4,-116 30,-5.7 64.1,-3 64.5,20.1 0,2 0.3,8 8.6,11.2 5,2 12.6,2.6 22.6,2.4 0,0 9.1,-0.7 9.1,8.5 0,11.5 -20.4,10.7 -20.4,10.7 -6.7,0.3 -22.6,-1.5 -31.7,1.2 -4.8,1.5 -9,4.2 -11.5,9.1 -4.2,8.3 -6.2,26.5 -6.5,45.5 v 15.5 c 0,3.1 2.5,5.7 5.7,5.7 h 68 c 3.1,0 5.7,-2.5 5.7,-5.7 v 0 -83.2 z"
         id="path8" />
      <path
         class="st2"
         d="M 227.6,54.6 C 223.2,42.4 213.6,32.8 201.4,28.4 190.3,24.9 179.9,24.9 159.2,24.9 H 96.8 c -20.7,0 -31.1,0 -42.2,3.5 -12.2,4.4 -21.8,14 -26.2,26.2 -3.5,11.2 -3.5,21.5 -3.5,42.2 v 62.5 c 0,20.7 0,31.1 3.5,42.2 4.4,12.2 14,21.8 26.2,26.2 11.2,3.5 21.5,3.5 42.2,3.5 h 62.5 c 20.7,0 31.1,0 42.2,-3.5 12.2,-4.4 21.8,-14 26.2,-26.2 3.5,-11.1 3.5,-21.5 3.5,-42.2 V 96.8 c 0,-20.7 0,-31.1 -3.6,-42.2 z m -22.5,150.2 h -68 c -3.1,0 -5.7,-2.5 -5.7,-5.7 v -15.5 c 0.3,-19 2.3,-37.2 6.5,-45.5 2.5,-5 6.7,-7.7 11.5,-9.1 9,-2.7 24.9,-0.9 31.7,-1.2 0,0 20.4,0.8 20.4,-10.7 0,-9.3 -9.1,-8.5 -9.1,-8.5 -10,0.3 -17.7,-0.4 -22.6,-2.4 -8.3,-3.3 -8.6,-9.2 -8.6,-11.2 -0.4,-23.1 -34.5,-25.9 -64.5,-20.1 -32.8,6.2 0.4,53.3 0.4,116 v 8.4 c -0.1,3.1 -2.5,5.6 -5.6,5.6 H 57.7 c -3.1,0 -5.7,-2.5 -5.7,-5.7 v -144 c 0,-3.1 2.5,-5.7 5.7,-5.7 h 31.7 c 3.1,0 5.7,2.5 5.7,5.7 0,4.7 5.2,7.2 9,4.5 11.4,-8.2 26,-12.5 42.4,-12.5 36.7,0 64.4,21.4 64.4,68.7 v 83.2 0 c -0.1,3.2 -2.6,5.7 -5.8,5.7 z M 125.7,99 c 0,-6.7 5.4,-12.1 12.1,-12.1 6.7,0 12.2,5.4 12.2,12.1 0,6.7 -5.4,12.1 -12.1,12.1 -6.7,0 -12.2,-5.3 -12.2,-12.1 z"
         id="path10" />
   </g>
</svg>